<svg width="25" height="25" viewBox="0 0 25 25" fill="none" xmlns="http://www.w3.org/2000/svg">
<path d="M12.5 12.5C13.7432 12.5 14.9355 12.0061 15.8146 11.1271C16.6936 10.248 17.1875 9.0557 17.1875 7.8125C17.1875 6.5693 16.6936 5.37701 15.8146 4.49794C14.9355 3.61886 13.7432 3.125 12.5 3.125C11.2568 3.125 10.0645 3.61886 9.18544 4.49794C8.30636 5.37701 7.8125 6.5693 7.8125 7.8125C7.8125 9.0557 8.30636 10.248 9.18544 11.1271C10.0645 12.0061 11.2568 12.5 12.5 12.5ZM12.5 14.0625C10.8424 14.0625 9.25268 13.404 8.08058 12.2319C6.90848 11.0598 6.25 9.4701 6.25 7.8125C6.25 6.1549 6.90848 4.56519 8.08058 3.39308C9.25268 2.22098 10.8424 1.5625 12.5 1.5625C14.1576 1.5625 15.7473 2.22098 16.9194 3.39308C18.0915 4.56519 18.75 6.1549 18.75 7.8125C18.75 9.4701 18.0915 11.0598 16.9194 12.2319C15.7473 13.404 14.1576 14.0625 12.5 14.0625Z" fill="black"/>
<path d="M12.5 12.5C12.7072 12.5 12.9059 12.5823 13.0524 12.7288C13.1989 12.8753 13.2812 13.074 13.2812 13.2812V19.5312C13.2812 19.7385 13.1989 19.9372 13.0524 20.0837C12.9059 20.2302 12.7072 20.3125 12.5 20.3125C12.2928 20.3125 12.0941 20.2302 11.9476 20.0837C11.8011 19.9372 11.7188 19.7385 11.7188 19.5312V13.2812C11.7188 13.074 11.8011 12.8753 11.9476 12.7288C12.0941 12.5823 12.2928 12.5 12.5 12.5Z" fill="black"/>
<path d="M9.375 15.8516V17.4375C6.58594 17.8844 4.6875 18.85 4.6875 19.5359C4.6875 20.4563 8.10313 21.8797 12.5 21.8797C16.8969 21.8797 20.3125 20.4563 20.3125 19.5359C20.3125 18.8484 18.4141 17.8844 15.625 17.4375V15.8516C19.2656 16.3875 21.875 17.8359 21.875 19.5359C21.875 21.6922 17.6781 23.4422 12.5 23.4422C7.32188 23.4422 3.125 21.6922 3.125 19.5359C3.125 17.8344 5.73438 16.3875 9.375 15.8516Z" fill="black"/>
</svg>
