<svg width="24" height="24" viewBox="0 0 24 24" fill="none" xmlns="http://www.w3.org/2000/svg">
<path d="M20.5582 18H18.375V17.2028C18.375 15.9878 17.3865 14.9993 16.1715 14.9993H14.25V13.329L15.1957 13.839C15.3075 13.899 15.4305 13.929 15.552 13.929C15.7058 13.929 15.8588 13.8818 15.9885 13.7888C16.2218 13.6215 16.3395 13.3373 16.2922 13.0545L15.6953 9.48075L18.222 6.95325C18.4222 6.75225 18.492 6.45675 18.4035 6.1875C18.3143 5.919 18.0818 5.7225 17.802 5.6805L14.3265 5.16225L12.7687 1.923C12.6427 1.66575 12.3802 1.5 12.0922 1.5C11.8042 1.5 11.541 1.66575 11.4165 1.9245L9.85875 5.16375L6.3825 5.68275C6.10275 5.72475 5.87025 5.92125 5.781 6.18975C5.6925 6.45825 5.763 6.7545 5.9625 6.95475L8.48925 9.48225L7.89225 13.056C7.845 13.3388 7.96275 13.623 8.196 13.7902C8.42925 13.9575 8.7375 13.9762 8.988 13.8397L9.75 13.4288V15H7.82775C6.6135 15 5.625 15.9877 5.625 17.2035V18H3.44175C2.3715 18 1.5 18.8708 1.5 19.9418V20.5582C1.5 21.6292 2.3715 22.5 3.44175 22.5H20.5575C21.6285 22.5 22.5 21.6292 22.5 20.5582V19.9418C22.5 18.8708 21.6285 18 20.5582 18ZM9.8235 8.6955L8.076 6.94725L10.473 6.5895C10.719 6.55275 10.9305 6.39675 11.0385 6.1725L12.0922 3.98025L13.146 6.1725C13.254 6.39675 13.4655 6.55275 13.7115 6.5895L16.1077 6.94725L14.3602 8.6955C14.1892 8.86725 14.1113 9.111 14.151 9.3495L14.559 11.7922L12.4478 10.653C12.2258 10.5338 11.958 10.5323 11.7353 10.653L9.62325 11.7922L10.0312 9.3495C10.0725 9.11025 9.9945 8.8665 9.8235 8.6955ZM11.226 12.6323L12.0915 12.1658L12.7913 12.543C12.7718 12.6098 12.75 12.6765 12.75 12.75V15H11.25V12.75C11.25 12.708 11.2328 12.672 11.226 12.6323ZM7.125 17.2035C7.125 16.8157 7.44 16.5 7.8285 16.5H10.5H13.5H16.1722C16.56 16.5 16.8757 16.8157 16.8757 17.2035V18H7.12575V17.2035H7.125ZM21 20.5582C21 20.802 20.802 21 20.5582 21H3.44175C3.198 21 3 20.802 3 20.5582V19.9418C3 19.698 3.198 19.5 3.44175 19.5H6.375H17.625H20.5582C20.802 19.5 21 19.698 21 19.9418V20.5582Z" fill="black"/>
</svg>
