<svg width="883" height="550" viewBox="110 205 883 550" fill="none" xmlns="http://www.w3.org/2000/svg">
<path d="M587.024 214.682C583.88 216.207 583.308 219.827 581.116 248.317C580.068 262.419 575.59 306.63 571.207 346.458C558.249 463.179 553.294 509.581 552.817 521.301C551.96 539.881 555.771 556.365 564.061 569.895C579.973 596.193 615.037 658.889 627.9 684.043L633.331 694.81L652.102 712.437C667.919 727.301 671.253 730.065 673.35 729.779C674.874 729.588 676.303 728.635 676.97 727.111C677.637 725.777 679.162 716.153 680.401 705.672C682.592 686.711 682.592 686.616 684.974 686.33C686.88 686.139 688.214 687.187 691.549 691.285C693.835 694.238 699.838 700.527 704.888 705.482C726.231 726.158 751.672 739.783 779.208 745.214C807.126 750.741 834.091 748.645 861.247 738.83C886.973 729.493 905.553 717.297 925.562 696.43C950.526 670.513 966.724 640.118 976.538 601.338C981.302 582.377 982.446 573.611 982.922 550.648C983.684 519.395 980.731 498.433 972.155 472.802C956.91 427.448 928.04 393.908 887.64 374.566C873.824 367.896 865.153 365.038 849.527 361.608C839.236 359.321 835.711 359.035 818.846 358.94C796.645 358.844 787.117 360.274 769.68 365.991C750.338 372.374 732.711 382.189 715.846 396.1C709.081 401.626 706.889 402.388 706.889 399.339C706.889 397.338 709.081 379.616 715.941 327.401C725.374 255.177 727.947 232.595 726.898 230.69C725.755 228.593 725.279 228.498 701.649 225.925C691.739 224.877 664.298 221.924 640.668 219.256C617.133 216.683 595.885 214.396 593.503 214.11C591.121 213.825 588.263 214.11 587.024 214.682ZM786.831 474.708C807.603 479.472 826.373 494.526 835.901 514.25C841.618 525.874 843.524 534.259 843.524 548.456C843.524 562.082 841.618 571.324 836.378 582.949C820.656 618.298 780.638 634.782 743.573 621.252C734.426 617.917 727.47 613.439 719.466 605.721C704.221 591.143 696.408 571.896 696.408 549.028C696.408 514.822 720.324 483.474 752.339 475.661C760.724 473.564 779.685 472.993 786.831 474.708Z" fill="#FFCE14"/>
<path d="M502.51 224.683C499.937 224.873 480.214 226.302 458.68 227.827C437.242 229.447 409.514 231.352 397.223 232.21C384.931 232.972 373.879 234.02 372.64 234.497C368.543 236.212 368.543 238.213 372.45 276.612C376.737 318.917 378.262 336.258 381.501 380.755C382.835 398.573 385.408 431.541 387.218 454.123C389.029 476.609 392.649 525.489 395.317 562.745C397.985 599.905 401.225 643.925 402.463 660.409C403.797 676.893 405.703 701.571 406.751 715.196C407.799 728.822 408.943 740.923 409.133 742.066C409.419 743.209 410.562 744.734 411.706 745.306C413.897 746.449 416.47 746.354 465.826 742.828C476.021 742.066 489.552 741.208 495.84 740.923C508.608 740.256 512.324 739.208 512.896 736.254C513.086 735.206 513.944 724.82 514.897 713.291C515.754 701.762 517.946 678.417 519.661 661.362C535.097 513.865 534.239 527.871 531.19 476.038C526.712 398.192 519.661 268.417 518.708 243.263C518.136 230.781 517.66 226.493 516.612 225.445C515.278 224.016 513.182 223.92 502.51 224.683Z" fill="#FFCE14"/>
<path d="M301.847 248.697C293.653 251.27 269.451 266.229 255.254 277.758C240.58 289.573 201.038 323.303 180.171 341.884C170.929 350.078 171.119 350.078 142.535 349.601L122.621 349.316L120.81 351.602C119.095 353.699 119 355.89 119 404.484C119 432.307 119.381 455.555 119.762 456.127C121.668 459.081 124.717 459.367 145.87 458.7C161.21 458.319 167.785 458.414 169.214 459.176L171.31 460.32L171.691 533.02C171.977 596.573 172.168 606.769 173.692 614.677C177.313 634.877 181.219 646.978 188.747 661.651C208.375 699.859 246.774 724.347 294.32 729.016C309.755 730.54 375.691 730.064 379.883 728.444L382.932 727.205V718.344C382.932 713.485 382.075 696.62 381.122 680.898C380.074 665.177 378.93 644.5 378.549 634.877C377.977 620.299 377.596 617.059 376.167 615.344C374.643 613.343 373.785 613.248 357.015 613.152C342.056 613.057 338.721 612.771 333.576 611.056C321.951 607.245 316.901 601.909 313.757 589.904C312.233 584.377 312.042 576.564 311.756 522.063L311.375 460.415L313.471 459.367C314.996 458.509 321.475 458.414 338.245 458.89L360.922 459.557L363.304 457.175C366.162 454.317 366.067 454.793 364.829 440.501C364.257 434.689 363.495 424.97 362.923 419.062C362.446 413.25 360.827 395.528 359.493 379.806C357.492 357.129 356.73 350.84 355.396 349.411C353.966 347.791 352.632 347.696 333.766 348.172C322.142 348.363 312.995 348.267 312.137 347.696C310.613 346.934 310.518 342.646 310.518 299.292C310.518 252.89 310.422 251.556 308.612 249.745C306.611 247.745 305.753 247.554 301.847 248.697Z" fill="#FFCE14"/>
</svg>
